{
  "accessors": [
    {
      "bufferView": 0,
      "componentType": 5126,
      "count": 244,
      "max": [
        -52.9969596862793,
        -138.7277069091797,
        22.48048210144043
      ],
      "min": [
        -89.0302963256836,
        -157.9720001220703,
        0.7394999861717224
      ],
      "type": "VEC3"
    },
    {
      "bufferView": 1,
      "componentType": 5125,
      "count": 508,
      "type": "SCALAR"
    },
    {
      "bufferView": 2,
      "componentType": 5126,
      "count": 244,
      "type": "VEC3"
    },
    {
      "bufferView": 3,
      "componentType": 5126,
      "count": 244,
      "type": "VEC4"
    },
    {
      "bufferView": 4,
      "componentType": 5126,
      "count": 244,
      "type": "VEC2"
    }
  ],
  "asset": {
    "version": "2.0"
  },
  "bufferViews": [
    {
      "buffer": 0,
      "byteLength": 2928,
      "target": 34962
    },
    {
      "buffer": 1,
      "byteLength": 2032,
      "target": 34963
    },
    {
      "buffer": 2,
      "byteLength": 2928,
      "target": 34962
    },
    {
      "buffer": 3,
      "byteLength": 3904,
      "target": 34962
    },
    {
      "buffer": 4,
      "byteLength": 1952,
      "target": 34962
    }
  ],
  "buffers": [
    {
      "byteLength": 2928,
      "uri": "data:application/octet-stream;base64,"
    },
    {
      "byteLength": 2032,
      "uri": "data:application/octet-stream;base64,"
    },
    {
      "byteLength": 2928,
      "uri": "data:application/octet-stream;base64,"
    },
    {
      "byteLength": 3904,
      "uri": "data:application/octet-stream;base64,"
    },
    {
      "byteLength": 1952,
      "uri": "data:application/octet-stream;base64,"
    }
  ],
  "images": [
    {
      "uri": "textures/Table_Mixed_AO.png"
    },
    {
      "uri": "textures/Table_Base_color.png"
    },
    {
      "uri": "textures/Table_Metallic.png"
    },
    {
      "uri": "textures/Table_Normal_OpenGL.png"
    },
    {
      "uri": "textures/Table_Roughness.png"
    }
  ],
  "materials": [
    {
      "doubleSided": true,
      "name": "Table",
      "normalTexture": {
        "index": 3
      },
      "occlusionTexture": {
        "index": 0
      },
      "pbrMetallicRoughness": {
        "baseColorFactor": [
          0.800000011920929,
          0.800000011920929,
          0.800000011920929,
          1.0
        ],
        "baseColorTexture": {
          "index": 1
        },
        "metallicRoughnessTexture": {
          "index": 4
        }
      }
    }
  ],
  "meshes": [
    {
      "primitives": [
        {
          "attributes": {
            "NORMAL": 2,
            "POSITION": 0,
            "TANGENT": 3,
            "TEXCOORD_0": 4
          },
          "indices": 1,
          "material": 0,
          "mode": 5
        }
      ]
    }
  ],
  "nodes": [
    {
      "mesh": 0,
      "name": "_gltfNode_0"
    },
    {
      "children": [
        0
      ],
      "name": "GLTF Converted Scene",
      "rotation": [
        -0.7071067811865475,
        0.0,
        0.0,
        0.7071067811865476
      ],
      "scale": [
        1.0,
        1.0,
        1.0
      ],
      "translation": [
        0.0,
        0.0,
        0.0
      ]
    }
  ],
  "samplers": [
    {
      "magFilter": 9729,
      "minFilter": 9729,
      "wrapS": 10497,
      "wrapT": 10497
    },
    {
      "magFilter": 9729,
      "minFilter": 9729,
      "wrapS": 10497,
      "wrapT": 10497
    },
    {
      "magFilter": 9729,
      "minFilter": 9729,
      "wrapS": 10497,
      "wrapT": 10497
    },
    {
      "magFilter": 9729,
      "minFilter": 9729,
      "wrapS": 10497,
      "wrapT": 10497
    },
    {
      "magFilter": 9729,
      "minFilter": 9729,
      "wrapS": 10497,
      "wrapT": 10497
    }
  ],
  "scene": 0,
  "scenes": [
    {
      "nodes": [
        1
      ]
    }
  ],
  "textures": [
    {
      "sampler": 0,
      "source": 0
    },
    {
      "sampler": 1,
      "source": 1
    },
    {
      "sampler": 2,
      "source": 2
    },
    {
      "sampler": 3,
      "source": 3
    },
    {
      "sampler": 4,
      "source": 4
    }
  ]
}
